<svg width="16" height="16" viewBox="0 0 16 16" fill="none" xmlns="http://www.w3.org/2000/svg">
<g clip-path="url(#clip0_430_1969)">
<path d="M4.0001 0.666748C4.36829 0.666748 4.66677 0.965221 4.66676 1.3334C4.66675 1.70157 4.36828 2.00003 4.0001 2.00003L2.00011 2.00003L2.00011 3.99994C2.00011 4.36812 1.70162 4.66658 1.33343 4.66658C0.965241 4.66658 0.666751 4.36811 0.666755 3.99993L0.666778 2.00003C0.666778 1.26672 1.26678 0.666748 2.00011 0.666748H4.0001Z" fill="white"/>
<path d="M14.6667 4.6666C15.0349 4.6666 15.3334 4.36814 15.3334 3.99996V2.00006C15.3334 1.26675 14.7334 0.666778 14.0001 0.666778L12.0001 0.666756C11.6319 0.666751 11.3334 0.965228 11.3334 1.33341C11.3334 1.70158 11.6319 2.00006 12.0001 2.00006L14.0001 2.00006V3.99996C14.0001 4.36813 14.2986 4.66659 14.6667 4.6666Z" fill="white"/>
<path d="M5.33341 3.99994C4.60008 3.99994 4.00008 4.59992 4.00008 5.33322V10.6663C4.00008 11.3996 4.60008 11.9996 5.33341 11.9996H10.6667C11.4001 11.9996 12.0001 11.3996 12.0001 10.6663V5.33322C12.0001 4.59992 11.4001 3.99994 10.6667 3.99994H5.33341ZM5.33341 5.33322H10.6667V10.6663H5.33341V5.33322Z" fill="white"/>
<path d="M12.0001 15.3328C11.6319 15.3328 11.3334 15.0343 11.3334 14.6662C11.3334 14.298 11.6319 13.9995 12.0001 13.9995H14.0001V11.9996C14.0001 11.6314 14.2985 11.333 14.6667 11.333C15.0349 11.333 15.3334 11.6314 15.3334 11.9996L15.3334 13.9995C15.3334 14.7328 14.7334 15.3328 14.0001 15.3328H12.0001Z" fill="white"/>
<path d="M1.33343 11.333C0.965234 11.3329 0.666748 11.6314 0.666748 11.9996V13.9995C0.666748 14.7328 1.26675 15.3328 2.00008 15.3328L4.00007 15.3328C4.36827 15.3328 4.66675 15.0343 4.66675 14.6661C4.66675 14.298 4.36827 13.9995 4.00008 13.9995H2.00008L2.00008 11.9996C2.00008 11.6314 1.70161 11.333 1.33343 11.333Z" fill="white"/>
</g>
<defs>
<clipPath id="clip0_430_1969">
<rect width="16" height="15.9993" fill="white"/>
</clipPath>
</defs>
</svg>
