<svg width="120" height="120" viewBox="0 0 120 120" fill="none" xmlns="http://www.w3.org/2000/svg">
<path d="M109.912 68.2515V60.5508C114.219 63.2765 115.52 66.4833 115.52 69.7187C115.52 71.1066 115.527 72.2445 115.534 73.29C115.546 75.1455 115.556 76.71 115.52 78.8654C115.119 76.4586 113.964 71.2324 109.912 68.2515Z" fill="#0C296E"/>
<path d="M10.3306 42.749V50.4301C8.38269 52.2109 6.60524 56.6486 7.85125 60.3199C7.56121 59.9573 7.29301 59.6385 7.04337 59.3416C5.63558 57.6679 4.81779 56.6956 4 52.5463C3.99996 50.2545 4.99007 45.1339 10.3306 42.749Z" fill="#0C296E"/>
<path d="M10.3306 23.1719V93.5888C10.3306 95.7979 12.1214 97.5888 14.3306 97.5888H53.3051L61.9151 77.1958L50.2809 57.8621L61.9151 31.6078H56.5816C55.3441 31.6078 54.1763 31.035 53.4187 30.0565L46.1927 20.7231C45.4351 19.7446 44.2673 19.1719 43.0298 19.1719H14.3306C12.1214 19.1719 10.3306 20.9627 10.3306 23.1719Z" fill="#BBBFC4" fill-opacity="0.45"/>
<path d="M109.912 93.5888V35.6078C109.912 33.3987 108.122 31.6078 105.912 31.6078H73.093L61.5635 57.8621L73.0088 77.1958L64.5502 97.5888H105.912C108.122 97.5888 109.912 95.7979 109.912 93.5888Z" fill="#BBBFC4" fill-opacity="0.45"/>
<path d="M5 64.5099V57.0792C6.00446 58.6255 7.25217 59.9399 8.74455 61.0722C11.2547 62.9766 14.4223 64.3394 18.2007 65.4597V73.984C9.48418 71.5237 6.1422 67.1969 5 64.5099ZM5 55.065C4.61391 54.2905 4.28071 53.4599 4 52.5669V64.7081C5.21354 67.7359 8.83598 72.4511 18.2007 75.022C18.527 75.1116 18.8603 75.1986 19.2007 75.2828V64.7081C12.1899 62.7252 7.49266 60.0652 5 55.065Z" fill="#0C296E"/>
<path d="M19.068 27.6318C20.1615 27.6318 21.048 28.5183 21.048 29.6118C21.048 30.7052 20.1615 31.5917 19.068 31.5917C17.9745 31.5917 17.0881 30.7052 17.0881 29.6118C17.0881 28.5183 17.9745 27.6318 19.068 27.6318ZM22.048 29.6118C22.048 27.966 20.7138 26.6318 19.068 26.6318C17.4222 26.6318 16.0881 27.966 16.0881 29.6118C16.0881 31.2575 17.4222 32.5917 19.068 32.5917C20.7138 32.5917 22.048 31.2575 22.048 29.6118Z" fill="#8F959E"/>
<path d="M28.9165 27.6318C30.01 27.6318 30.8965 28.5183 30.8965 29.6118C30.8965 30.7052 30.01 31.5917 28.9165 31.5917C27.823 31.5917 26.9366 30.7052 26.9366 29.6118C26.9366 28.5183 27.8231 27.6318 28.9165 27.6318ZM31.8965 29.6118C31.8965 27.966 30.5623 26.6318 28.9165 26.6318C27.2707 26.6318 25.9366 27.966 25.9366 29.6118C25.9366 31.2575 27.2707 32.5917 28.9165 32.5917C30.5623 32.5917 31.8965 31.2575 31.8965 29.6118Z" fill="#8F959E"/>
<path d="M15.5879 49.7461C15.5879 49.47 15.8117 49.2461 16.0879 49.2461H36.9869C37.263 49.2461 37.4869 49.47 37.4869 49.7461C37.4869 50.0222 37.263 50.2461 36.9869 50.2461H16.0879C15.8117 50.2461 15.5879 50.0222 15.5879 49.7461Z" fill="#8F959E"/>
<path d="M15.5879 59.0498C15.5879 58.7737 15.8117 58.5498 16.0879 58.5498H36.9869C37.263 58.5498 37.4869 58.7737 37.4869 59.0498C37.4869 59.3259 37.263 59.5498 36.9869 59.5498H16.0879C15.8117 59.5498 15.5879 59.3259 15.5879 59.0498Z" fill="#8F959E"/>
<path d="M95.3142 104.057C105.763 103.251 108.868 99.5146 111.89 96.3447V104.057C110.047 106.828 103.689 110.051 95.3142 110.724C86.9399 111.396 77.2841 110.724 61.2692 109.939V103.276C73.9603 103.276 84.8657 104.863 95.3142 104.057Z" fill="#3370FF"/>
<path d="M80.542 89.1908V81.4726C87.2817 82.0621 93.3755 82.9169 102.522 81.4726C111.763 80.0135 115.52 74.3773 115.52 68.9561V79.0263C115.039 82.4354 110.706 88.2123 103.004 89.1751C95.3011 90.138 88.2097 90.1074 80.542 89.1908Z" fill="#3370FF"/>
<path d="M5.39941 93.6722V85.4707C13.6009 91.8719 26.5201 94.8466 38.6962 94.8466V102.952C24.602 102.952 11.0004 99.2732 5.39941 93.6722Z" fill="#00D6B9"/>
<path d="M98.031 44.6318C107.972 44.6318 116.031 36.573 116.031 26.6318C116.031 16.6907 107.972 8.63184 98.031 8.63184C88.0899 8.63184 80.031 16.6907 80.031 26.6318C80.031 36.573 88.0899 44.6318 98.031 44.6318Z" fill="#FF8800"/>
<path d="M97.2128 18.4502C96.761 18.4502 96.3947 18.8165 96.3947 19.2684V29.0866C96.3947 29.5384 96.761 29.9047 97.2128 29.9047H98.8492C99.3011 29.9047 99.6674 29.5384 99.6674 29.0866V19.2684C99.6674 18.8165 99.3011 18.4502 98.8492 18.4502H97.2128Z" fill="white"/>
<path d="M97.2128 31.5411C96.761 31.5411 96.3947 31.9074 96.3947 32.3593V33.9956C96.3947 34.4475 96.761 34.8138 97.2128 34.8138H98.8492C99.3011 34.8138 99.6674 34.4475 99.6674 33.9956V32.3593C99.6674 31.9074 99.3011 31.5411 98.8492 31.5411H97.2128Z" fill="white"/>
</svg>
