<svg width="24" height="24" viewBox="0 0 24 24" fill="none" xmlns="http://www.w3.org/2000/svg">
<path fill-rule="evenodd" clip-rule="evenodd" d="M18.0128 5.74234C17.8566 5.58613 17.6033 5.58613 17.4471 5.74234L12 11.1895L6.80282 5.99234C6.64661 5.83613 6.39334 5.83613 6.23713 5.99234L5.74216 6.48732C5.58595 6.64352 5.58595 6.89679 5.74216 7.053L10.9393 12.2501L5.99196 17.1975C5.83575 17.3537 5.83575 17.6069 5.99196 17.7632L6.48694 18.2581C6.64315 18.4143 6.89641 18.4143 7.05262 18.2581L12 13.3108L17.1973 18.5081C17.3535 18.6643 17.6068 18.6643 17.763 18.5081L18.2579 18.0132C18.4142 17.8569 18.4142 17.6037 18.2579 17.4475L13.0606 12.2501L18.5078 6.803C18.664 6.64679 18.664 6.39352 18.5078 6.23732L18.0128 5.74234Z" fill="#F8F9FA"/>
</svg>
