<svg width="16" height="16" viewBox="0 0 16 16" fill="none" xmlns="http://www.w3.org/2000/svg">
<path d="M8.66675 8.66667H7.33341V10H8.66675V8.66667Z" fill="white"/>
<path d="M7.33341 6H8.66675V7.33333H7.33341V6Z" fill="white"/>
<path d="M3.33341 6.91994C3.33341 7.04781 3.47146 7.12805 3.58257 7.06477L4.327 6.64077V10.3333C4.327 10.5174 4.47624 10.6667 4.66034 10.6667H5.33341C5.51751 10.6667 5.66675 10.5174 5.66675 10.3333V5.66667C5.66675 5.48257 5.51751 5.33333 5.33341 5.33333H4.41447C4.35713 5.33333 4.30076 5.34812 4.25081 5.37628L3.50309 5.79769C3.39826 5.85677 3.33341 5.96776 3.33341 6.08808V6.91994Z" fill="white"/>
<path d="M10.2492 7.06477C10.1381 7.12805 10.0001 7.04781 10.0001 6.91994V6.08808C10.0001 5.96776 10.0649 5.85677 10.1698 5.79769L10.9175 5.37628C10.9674 5.34812 11.0238 5.33333 11.0811 5.33333H12.0001C12.1842 5.33333 12.3334 5.48257 12.3334 5.66667V10.3333C12.3334 10.5174 12.1842 10.6667 12.0001 10.6667H11.327C11.1429 10.6667 10.9937 10.5174 10.9937 10.3333V6.64077L10.2492 7.06477Z" fill="white"/>
<path d="M0.666748 3.33333C0.666748 2.6 1.26675 2 2.00008 2H14.0001C14.7334 2 15.3334 2.6 15.3334 3.33333V12.6667C15.3334 13.4 14.7334 14 14.0001 14H2.00008C1.26675 14 0.666748 13.4 0.666748 12.6667V3.33333ZM14.0001 3.33333H2.00008V12.6667H14.0001V3.33333Z" fill="white"/>
</svg>
