<svg width="16" height="16" viewBox="0 0 16 16" fill="none" xmlns="http://www.w3.org/2000/svg">
<path d="M10.6676 2.66675H8.33325V2.00008C8.33325 1.93818 8.31601 1.8775 8.28347 1.82484C8.25092 1.77218 8.20436 1.72962 8.14899 1.70194C8.09362 1.67425 8.03163 1.66254 7.96998 1.6681C7.90833 1.67365 7.84944 1.69627 7.79992 1.73341L6.02225 3.06675C5.98085 3.0978 5.94725 3.13806 5.92411 3.18434C5.90096 3.23063 5.88892 3.28167 5.88892 3.33341C5.88892 3.38516 5.90096 3.4362 5.92411 3.48249C5.94725 3.52877 5.98085 3.56903 6.02225 3.60008L7.79992 4.93341C7.84944 4.97056 7.90833 4.99318 7.96998 4.99873C8.03163 5.00429 8.09362 4.99257 8.14899 4.96489C8.20436 4.93721 8.25092 4.89465 8.28347 4.84199C8.31601 4.78933 8.33325 4.72865 8.33325 4.66675V4.00008H10.6676C11.3748 4.00008 12.0531 4.28103 12.5532 4.78113C13.0533 5.28123 13.3342 5.9595 13.3342 6.66675V7.00008C13.3342 7.04386 13.3429 7.0872 13.3596 7.12764C13.3764 7.16808 13.4009 7.20483 13.4319 7.23578C13.4628 7.26674 13.4996 7.29129 13.54 7.30804C13.5805 7.32479 13.6238 7.33342 13.6676 7.33342H14.3342C14.378 7.33342 14.4214 7.32479 14.4618 7.30804C14.5023 7.29129 14.539 7.26674 14.57 7.23578C14.6009 7.20483 14.6255 7.16808 14.6422 7.12764C14.659 7.0872 14.6676 7.04386 14.6676 7.00008V6.66675C14.6676 4.45775 12.8766 2.66675 10.6676 2.66675Z" fill="white"/>
<path d="M1.33325 7.66667C1.33325 6.93333 1.93325 6.33333 2.66659 6.33333H9.66659C10.3999 6.33333 10.9999 6.93333 10.9999 7.66667V13.3333C10.9999 14.0667 10.3999 14.6667 9.66659 14.6667H2.66659C1.93325 14.6667 1.33325 14.0667 1.33325 13.3333V7.66667ZM9.66659 7.66667H2.66659V13.3333H9.66659V7.66667Z" fill="white"/>
</svg>
