<svg width="16" height="16" viewBox="0 0 16 16" fill="none" xmlns="http://www.w3.org/2000/svg">
<path d="M12.4954 11.5523L14.9103 13.9674C15.17 14.2272 15.1682 14.6486 14.9085 14.9083C14.6487 15.1681 14.2273 15.1698 13.9676 14.9101L11.5524 12.495C10.3629 13.4702 8.87164 14.0022 7.33342 14C3.65142 14 0.666748 11.0153 0.666748 7.33329C0.666748 3.65129 3.65142 0.666626 7.33342 0.666626C11.0154 0.666626 14.0001 3.65129 14.0001 7.33329C14.0001 8.93429 13.4358 10.4033 12.4954 11.5523ZM6.66675 6.66663V5.33329C6.66675 4.9651 6.96523 4.66663 7.33342 4.66663C7.70161 4.66663 8.00008 4.9651 8.00008 5.33329V6.66663H9.33342C9.70161 6.66663 10.0001 6.9651 10.0001 7.33329C10.0001 7.70148 9.70161 7.99996 9.33342 7.99996H8.00008V9.33329C8.00008 9.70148 7.70161 9.99996 7.33342 9.99996C6.96523 9.99996 6.66675 9.70148 6.66675 9.33329V7.99996H5.33342C4.96523 7.99996 4.66675 7.70148 4.66675 7.33329C4.66675 6.9651 4.96523 6.66663 5.33342 6.66663H6.66675ZM7.33342 12.6666C10.2791 12.6666 12.6668 10.279 12.6668 7.33329C12.6668 4.38763 10.2791 1.99996 7.33342 1.99996C4.38775 1.99996 2.00008 4.38763 2.00008 7.33329C2.00008 10.279 4.38775 12.6666 7.33342 12.6666Z" fill="white"/>
</svg>
