<?xml version="1.0" encoding="UTF-8"?>
<svg width="30px" height="30px" viewBox="0 0 30 30" version="1.1" xmlns="http://www.w3.org/2000/svg" xmlns:xlink="http://www.w3.org/1999/xlink">
    <!-- Generator: Sketch 52.1 (67048) - http://www.bohemiancoding.com/sketch -->
    <title>Combined Shape@2x</title>
    <desc>Created with Sketch.</desc>
    <g id="创建应用" stroke="none" stroke-width="1" fill="none" fill-rule="evenodd">
        <g id="我的应用-创建应用-第一次创建-空态-copy" transform="translate(-513.000000, -432.000000)" fill="#FFFFFF">
            <g id="Group-37" transform="translate(420.000000, 98.000000)">
                <g id="Group-4" transform="translate(28.000000, 231.000000)">
                    <g id="Group-10" transform="translate(48.000000, 86.000000)">
                        <g id="Group-19" transform="translate(17.000000, 17.000000)">
                            <path d="M7.43303571,5.78947368 L8.71225997,2.89384858 C8.9522941,2.35051238 9.49033611,2 10.0843316,2 L19.9156684,2 C20.5096639,2 21.0477059,2.35051238 21.28774,2.89384858 L22.5669643,5.78947368 L28,5.78947368 C29.1045695,5.78947368 30,6.68490418 30,7.78947368 L30,24 C30,25.1045695 29.1045695,26 28,26 L2,26 C0.8954305,26 2.09738034e-15,25.1045695 0,24 L0,7.78947368 C-1.3527075e-16,6.68490418 0.8954305,5.78947368 2,5.78947368 L7.43303571,5.78947368 Z M26.25,10.8421053 C26.9403559,10.8421053 27.5,10.2765702 27.5,9.57894737 C27.5,8.88132453 26.9403559,8.31578947 26.25,8.31578947 C25.5596441,8.31578947 25,8.88132453 25,9.57894737 C25,10.2765702 25.5596441,10.8421053 26.25,10.8421053 Z M15,23.4736842 C19.1421356,23.4736842 22.5,20.0804739 22.5,15.8947368 C22.5,11.7089998 19.1421356,8.31578947 15,8.31578947 C10.8578644,8.31578947 7.5,11.7089998 7.5,15.8947368 C7.5,20.0804739 10.8578644,23.4736842 15,23.4736842 Z M15,20.9473684 C12.2385763,20.9473684 10,18.6852282 10,15.8947368 C10,13.1042455 12.2385763,10.8421053 15,10.8421053 C17.7614237,10.8421053 20,13.1042455 20,15.8947368 C20,18.6852282 17.7614237,20.9473684 15,20.9473684 Z" id="Combined-Shape"></path>
                        </g>
                    </g>
                </g>
            </g>
        </g>
    </g>
</svg>