<svg width="20" height="20" viewBox="0 0 20 20" fill="currentColor" xmlns="http://www.w3.org/2000/svg">
<path d="M15.6192 14.4401L18.9313 17.7526C19.0094 17.8307 19.0532 17.9367 19.0532 18.0472C19.0532 18.1577 19.0094 18.2636 18.9313 18.3418L18.3421 18.9309C18.264 19.009 18.158 19.0529 18.0475 19.0529C17.937 19.0529 17.8311 19.009 17.7529 18.9309L14.4404 15.6184C12.9535 16.8375 11.0894 17.5025 9.16667 17.4997C4.56417 17.4997 0.833332 13.7688 0.833332 9.16634C0.833332 4.56384 4.56417 0.833008 9.16667 0.833008C13.7692 0.833008 17.5 4.56384 17.5 9.16634C17.5 11.1676 16.7946 13.0038 15.6192 14.4401ZM9.16667 15.833C12.8488 15.833 15.8333 12.8484 15.8333 9.16634C15.8333 5.48426 12.8488 2.49967 9.16667 2.49967C5.48458 2.49967 2.5 5.48426 2.5 9.16634C2.5 12.8484 5.48458 15.833 9.16667 15.833ZM6.25 8.33301H12.0833C12.1381 8.33301 12.1922 8.34378 12.2428 8.36472C12.2933 8.38566 12.3393 8.41636 12.378 8.45505C12.4167 8.49374 12.4473 8.53967 12.4683 8.59022C12.4892 8.64077 12.5 8.69496 12.5 8.74967V9.58301C12.5 9.63772 12.4892 9.69191 12.4683 9.74246C12.4473 9.79301 12.4167 9.83894 12.378 9.87764C12.3393 9.91633 12.2933 9.94702 12.2428 9.96796C12.1922 9.9889 12.1381 9.99967 12.0833 9.99967H6.25C6.13949 9.99967 6.03351 9.95578 5.95537 9.87764C5.87723 9.79949 5.83333 9.69351 5.83333 9.58301V8.74967C5.83333 8.63917 5.87723 8.53319 5.95537 8.45505C6.03351 8.37691 6.13949 8.33301 6.25 8.33301Z" />
</svg>
