<svg width="20" height="20" viewBox="0 0 20 20" fill="currentColor" xmlns="http://www.w3.org/2000/svg">
<path d="M15.6192 14.4401L18.9313 17.7526C19.0094 17.8307 19.0532 17.9367 19.0532 18.0472C19.0532 18.1577 19.0094 18.2636 18.9313 18.3418L18.3421 18.9309C18.264 19.009 18.158 19.0529 18.0475 19.0529C17.937 19.0529 17.8311 19.009 17.7529 18.9309L14.4404 15.6184C12.9535 16.8375 11.0894 17.5025 9.16667 17.4997C4.56417 17.4997 0.833332 13.7688 0.833332 9.16634C0.833332 4.56384 4.56417 0.833008 9.16667 0.833008C13.7692 0.833008 17.5 4.56384 17.5 9.16634C17.5 11.1676 16.7946 13.0038 15.6192 14.4401ZM8.33333 8.33301V6.24967C8.33333 6.13917 8.37723 6.03319 8.45537 5.95505C8.53351 5.87691 8.63949 5.83301 8.75 5.83301H9.58333C9.69384 5.83301 9.79982 5.87691 9.87796 5.95505C9.9561 6.03319 10 6.13917 10 6.24967V8.33301H12.0833C12.1381 8.33301 12.1922 8.34378 12.2428 8.36472C12.2933 8.38566 12.3393 8.41636 12.378 8.45505C12.4167 8.49374 12.4473 8.53967 12.4683 8.59022C12.4892 8.64077 12.5 8.69496 12.5 8.74967V9.58301C12.5 9.63772 12.4892 9.69191 12.4683 9.74246C12.4473 9.79301 12.4167 9.83894 12.378 9.87764C12.3393 9.91633 12.2933 9.94702 12.2428 9.96796C12.1922 9.9889 12.1381 9.99967 12.0833 9.99967H10V12.083C10 12.1377 9.98922 12.1919 9.96828 12.2425C9.94734 12.293 9.91665 12.3389 9.87796 12.3776C9.83927 12.4163 9.79334 12.447 9.74279 12.468C9.69223 12.4889 9.63805 12.4997 9.58333 12.4997H8.75C8.63949 12.4997 8.53351 12.4558 8.45537 12.3776C8.37723 12.2995 8.33333 12.1935 8.33333 12.083V9.99967H6.25C6.13949 9.99967 6.03351 9.95578 5.95537 9.87764C5.87723 9.79949 5.83333 9.69351 5.83333 9.58301V8.74967C5.83333 8.63917 5.87723 8.53319 5.95537 8.45505C6.03351 8.37691 6.13949 8.33301 6.25 8.33301H8.33333ZM9.16667 15.833C12.8488 15.833 15.8333 12.8484 15.8333 9.16634C15.8333 5.48426 12.8488 2.49967 9.16667 2.49967C5.48458 2.49967 2.5 5.48426 2.5 9.16634C2.5 12.8484 5.48458 15.833 9.16667 15.833Z"/>
</svg>
