<svg t="1621496586888" class="icon" viewBox="0 0 1024 1024" version="1.1" xmlns="http://www.w3.org/2000/svg" p-id="11945" width="32" height="32"><path d="M795.136 935.424H164.352c-47.616 0-86.016-38.4-86.016-86.016V219.136c0-47.616 38.4-86.016 86.016-86.016h630.272c47.616 0 86.016 38.4 86.016 86.016v630.272c0.512 47.616-37.888 86.016-85.504 86.016zM164.352 177.664c-23.04 0-41.472 18.432-41.472 41.472v630.272c0 23.04 18.432 41.472 41.472 41.472h630.272c23.04 0 41.472-18.432 41.472-41.472V219.136c0-23.04-18.432-41.472-41.472-41.472H164.352z" fill="" p-id="11946"></path><path d="M744.96 556.544H214.528c-12.288 0-22.528-9.728-22.528-22.528 0-12.288 9.728-22.528 22.528-22.528h530.432c12.288 0 22.528 9.728 22.528 22.528 0 12.8-10.24 22.528-22.528 22.528z" fill="" p-id="11947"></path><path d="M479.744 821.76c-12.288 0-22.528-9.728-22.528-22.528V269.312c0-12.288 9.728-22.528 22.528-22.528s22.528 9.728 22.528 22.528v530.432c0 12.288-10.24 22.016-22.528 22.016z" fill="" p-id="11948"></path></svg>