<svg width="20" height="20" viewBox="0 0 20 20" fill="none" xmlns="http://www.w3.org/2000/svg">
<path d="M10 8.82153L15.598 3.2236C15.7607 3.06088 16.0245 3.06088 16.1872 3.2236L16.7765 3.81286C16.9392 3.97558 16.9392 4.23939 16.7765 4.40211L11.1786 10L16.7765 15.598C16.9392 15.7607 16.9392 16.0245 16.7765 16.1872L16.1872 16.7765C16.0245 16.9392 15.7607 16.9392 15.598 16.7765L10 11.1786L4.40211 16.7765C4.23939 16.9392 3.97558 16.9392 3.81286 16.7765L3.2236 16.1872C3.06088 16.0245 3.06088 15.7607 3.2236 15.598L8.82153 10L3.2236 4.40211C3.06088 4.23939 3.06088 3.97558 3.2236 3.81286L3.81286 3.2236C3.97558 3.06088 4.23939 3.06088 4.40211 3.2236L10 8.82153Z" fill="#646A73"/>
</svg>
