<svg t="1615200696654" class="icon" viewBox="0 0 1024 1024" version="1.1" xmlns="http://www.w3.org/2000/svg" p-id="2130" width="20" height="20"><path d="M553.223 471.081l216.8-216.842a28.344 28.344 0 0 0 0-39.936l-1.187-1.188a28.344 28.344 0 0 0-39.895 0L512.14 430.244 295.297 213.033a28.344 28.344 0 0 0-39.895 0l-1.228 1.188a27.853 27.853 0 0 0 0 39.895L471.057 471.08 254.215 687.964a28.344 28.344 0 0 0 0 39.895l1.187 1.229a28.344 28.344 0 0 0 39.895 0L512.14 512.205 728.94 729.047a28.344 28.344 0 0 0 39.895 0l1.229-1.188a28.344 28.344 0 0 0 0-39.895L553.182 471.04z" fill="" p-id="2131"></path></svg>