<svg t="1626609626195" class="icon" viewBox="0 0 1024 1024" version="1.1" xmlns="http://www.w3.org/2000/svg" p-id="1785" width="24" height="24"><path d="M234.666667 234.666667h554.666666v554.666666H234.666667z" fill="#FCFCFC" p-id="1786"></path><path d="M21.333333 106.666667h85.333334v128H21.333333z" fill="#FFD747" p-id="1787"></path><path d="M789.333333 917.333333h128v85.333334h-128z" fill="#FE8205" p-id="1788"></path><path d="M917.333333 106.666667l-128 128H234.666667V106.666667h682.666666z" fill="#FFD747" p-id="1789"></path><path d="M917.333333 234.666667v554.666666h-128V234.666667l128-128v128z" fill="#FFB13B" p-id="1790"></path><path d="M1002.666667 789.333333v128H106.666667V21.333333h128v768h768z" fill="#31C4FF" p-id="1791"></path><path d="M170.666667 64L106.666667 21.333333v896l64-64V64z" fill="#31C4FF" p-id="1792"></path><path d="M170.666667 853.333333l64-64V21.333333L170.666667 64v789.333333z" fill="#70E1FF" p-id="1793"></path><path d="M938.666667 853.333333l64-64H234.666667l-64 64h768z" fill="#31C4FF" p-id="1794"></path><path d="M170.666667 853.333333l-64 64h896l-64-64H170.666667z" fill="#00A6FF" p-id="1795"></path><path d="M938.666667 853.333333l64 64v-128l-64 64z" fill="#0091FF" p-id="1796"></path><path d="M234.666667 21.333333H106.666667l64 42.666667 64-42.666667z" fill="#00A6FF" p-id="1797"></path><path d="M234.666667 234.666667h554.666666l64-64H234.666667v64z" fill="#FFB13B" p-id="1798"></path><path d="M789.333333 234.666667v554.666666h64V170.666667l-64 64z" fill="#FE8205" p-id="1799"></path><path d="M853.333333 917.333333h64v85.333334h-64zM21.333333 170.666667h85.333334v64H21.333333z" fill="#FFB13B" p-id="1800"></path><path d="M725.333333 234.666667H234.666667v64h490.666666v490.666666h64V234.666667h-64z" fill="#E4E4E4" p-id="1801"></path><path d="M1002.666667 768h-192v42.666667h170.666666v85.333333H128V42.666667h85.333333v170.666666h42.666667V21.333333a21.333333 21.333333 0 0 0-21.333333-21.333333H106.666667a21.333333 21.333333 0 0 0-21.333334 21.333333v64H21.333333a21.333333 21.333333 0 0 0-21.333333 21.333334v128a21.333333 21.333333 0 0 0 21.333333 21.333333h64v652.501333L6.250667 987.584l30.165333 30.165333L115.498667 938.666667H768v64a21.333333 21.333333 0 0 0 21.333333 21.333333h128a21.333333 21.333333 0 0 0 21.333334-21.333333v-64h64a21.333333 21.333333 0 0 0 21.333333-21.333334v-128a21.333333 21.333333 0 0 0-21.333333-21.333333zM42.666667 213.333333V128h42.666666v85.333333z m853.333333 768h-85.333333v-42.666666h85.333333z" p-id="1802"></path><path d="M768 682.666667h42.666667v42.666666h-42.666667zM298.666667 213.333333h42.666666v42.666667h-42.666666z" p-id="1803"></path><path d="M780.501333 213.333333H384v42.666667h353.834667L256 737.834667V256h-42.666667v533.333333a21.333333 21.333333 0 0 0 21.333334 21.333334h533.333333v-42.666667H286.165333L768 286.165333V640h42.666667V243.498667l85.333333-85.333334V725.333333h42.666667V115.498667l79.082666-79.082667L987.584 6.250667 908.501333 85.333333H298.666667v42.666667h567.168z" p-id="1804"></path></svg>