<svg t="1620612336673" class="icon" viewBox="0 0 1024 1024" version="1.1" xmlns="http://www.w3.org/2000/svg" p-id="1760" width="16" height="16"><path d="M912.5 442.9l-4.3-4.3c-10.5-10.5-27.6-10.5-38.1 0L514.8 793.8c-1.6 1.6-4.1 1.6-5.7 0L153.9 438.6c-10.5-10.5-27.6-10.5-38.1 0l-4.3 4.3c-10.5 10.5-10.5 27.6 0 38.1l391 391 6.7 6.7c1.6 1.6 4.1 1.6 5.7 0L912.5 481c10.5-10.5 10.5-27.6 0-38.1z" p-id="1761" fill="#1afa29"></path><path d="M469.6 562l39.6 39.6c1.6 1.6 4.1 1.6 5.7 0l395.5-395.5c11.7-11.7 11.7-30.7 0-42.4s-30.7-11.7-42.4 0L514.8 516.8c-1.6 1.6-4.1 1.6-5.7 0l-353-353.1c-11.7-11.7-30.7-11.7-42.4 0s-11.7 30.7 0 42.4L469.6 562z" p-id="1762" fill="#1afa29"></path></svg>