<svg t="1621415935017" class="icon" viewBox="0 0 1024 1024" version="1.1" xmlns="http://www.w3.org/2000/svg" p-id="1325" width="20" height="20"><path d="M96.049685 836.171583V205.27074a79.449082 79.449082 0 0 1 79.449082-79.449082h660.781928a79.449082 79.449082 0 0 1 79.449082 79.449082v630.885256a79.449082 79.449082 0 0 1-79.449082 79.449082H175.498767a79.433495 79.433495 0 0 1-79.449082-79.433495z" fill="#FFFFFF" p-id="1326"></path><path d="M711.160471 447.982464h-131.916339v-134.114166a72.730904 72.730904 0 1 0-145.461808 0v134.114166h-136.296404a72.730904 72.730904 0 1 0 0 145.461808h136.296404v134.114166a72.730904 72.730904 0 1 0 145.461808 0v-134.114166h131.916339a72.730904 72.730904 0 1 0 0-145.461808z" fill="#4B8B7E" p-id="1327"></path></svg>