<?xml version="1.0" standalone="no"?><!DOCTYPE svg PUBLIC "-//W3C//DTD SVG 1.1//EN" "http://www.w3.org/Graphics/SVG/1.1/DTD/svg11.dtd"><svg t="1610336592797" class="icon" viewBox="0 0 1024 1024" version="1.1" xmlns="http://www.w3.org/2000/svg" p-id="4428" xmlns:xlink="http://www.w3.org/1999/xlink" width="256" height="256"><defs><style type="text/css"></style></defs><path d="M900.266667 379.733333c-12.8-8.533333-34.133333-8.533333-42.666667 8.533334-136.533333 187.733333-396.8 226.133333-584.533333 93.866666-42.666667-29.866667-76.8-64-102.4-106.666666-8.533333-12.8-29.866667-17.066667-42.666667-8.533334-12.8 8.533333-17.066667 29.866667-8.533333 42.666667 29.866667 46.933333 72.533333 85.333333 115.2 119.466667 17.066667 12.8 38.4 25.6 55.466666 34.133333l-81.066666 81.066667c-12.8 12.8-12.8 34.133333 0 46.933333 4.266667 4.266667 12.8 8.533333 21.333333 8.533333s17.066667-4.266667 21.333333-8.533333L345.6 597.333333l4.266667-4.266666c42.666667 17.066667 85.333333 25.6 128 29.866666v119.466667c0 17.066667 12.8 34.133333 34.133333 34.133333s34.133333-12.8 34.133333-34.133333v-123.733333c38.4-4.266667 72.533333-8.533333 110.933334-17.066667 0 0 0 4.266667 4.266666 4.266667l93.866667 93.866666c4.266667 4.266667 12.8 8.533333 21.333333 8.533334s17.066667-4.266667 21.333334-8.533334c12.8-12.8 12.8-34.133333 0-46.933333l-76.8-76.8c72.533333-34.133333 136.533333-85.333333 187.733333-153.6 8.533333-12.8 4.266667-29.866667-8.533333-42.666667z" p-id="4429"></path></svg>