<?xml version="1.0" standalone="no"?><!DOCTYPE svg PUBLIC "-//W3C//DTD SVG 1.1//EN" "http://www.w3.org/Graphics/SVG/1.1/DTD/svg11.dtd"><svg t="1610336554820" class="icon" viewBox="0 0 1024 1024" version="1.1" xmlns="http://www.w3.org/2000/svg" p-id="4298" xmlns:xlink="http://www.w3.org/1999/xlink" width="256" height="256"><defs><style type="text/css"></style></defs><path d="M511.999488 252.461919c-174.547385 0-324.652078 108.241236-384.02942 261.84973 59.377342 153.60747 209.481012 261.84973 384.02942 261.84973 174.551478 0 324.70529-108.241236 384.02942-261.84973C836.703755 360.702132 686.550966 252.461919 511.999488 252.461919M511.999488 688.862103c-97.731882 0-174.547385-76.767408-174.547385-174.550455 0-97.782024 76.815503-174.551478 174.547385-174.551478 97.785094 0 174.551478 76.769454 174.551478 174.551478C686.550966 612.094696 609.784582 688.862103 511.999488 688.862103M511.999488 409.573189c-59.32413 0-104.737436 45.413306-104.737436 104.738459 0 59.328223 45.413306 104.739483 104.737436 104.739483 59.377342 0 104.740506-45.412282 104.740506-104.739483C616.739994 454.986495 571.376831 409.573189 511.999488 409.573189" p-id="4299"></path></svg>