<svg t="1615955863193" class="icon" viewBox="0 0 1297 1024" version="1.1" xmlns="http://www.w3.org/2000/svg" p-id="2035" width="24" height="24"><path d="M1082.5728 366.250667l-379.562667 61.44 543.402667 474.453333z" p-id="2036" fill="#1296db"></path><path d="M896.887467 433.834667a300.373333 300.373333 0 0 1-49.834667 117.418666 363.861333 363.861333 0 0 1-598.016 0 302.421333 302.421333 0 0 1 106.496-427.349333 481.962667 481.962667 0 0 1 423.253333-16.384 409.6 409.6 0 0 1 173.397334 144.042667h18.432a387.072 387.072 0 0 0-154.965334-180.906667 559.786667 559.786667 0 0 0-522.24 0 485.376 485.376 0 0 0-217.088 633.514667 517.461333 517.461333 0 0 0 942.08 0 467.626667 467.626667 0 0 0 43.008-295.594667l-164.522666 25.258667z" p-id="2037" fill="#1296db"></path></svg>