<svg width="24" height="24" viewBox="0 0 24 24" fill="none" xmlns="http://www.w3.org/2000/svg">
<path d="M12 23C18.0751 23 23 18.0751 23 12C23 5.92487 18.0751 1 12 1C5.92487 1 1 5.92487 1 12C1 18.0751 5.92487 23 12 23ZM11 7.5C11 7.22386 11.2239 7 11.5 7H12.5C12.7761 7 13 7.22386 13 7.5V13.5C13 13.7761 12.7761 14 12.5 14H11.5C11.2239 14 11 13.7761 11 13.5V7.5ZM11 15.5C11 15.2239 11.2239 15 11.5 15H12.5C12.7761 15 13 15.2239 13 15.5V16.5C13 16.7761 12.7761 17 12.5 17H11.5C11.2239 17 11 16.7761 11 16.5V15.5Z" fill="#FF8800"/>
</svg>
